<?xml version="1.0" encoding="utf-8"?>
<!-- Generator: Adobe Illustrator 26.0.3, SVG Export Plug-In . SVG Version: 6.00 Build 0)  -->
<svg version="1.0" id="katman_1" xmlns="http://www.w3.org/2000/svg" xmlns:xlink="http://www.w3.org/1999/xlink" x="0px" y="0px"
	 viewBox="0 0 600 450" style="enable-background:new 0 0 600 450;" xml:space="preserve">
<style type="text/css">
	.st0{fill:#010202;}
	.st1{fill:#FFFFFF;}
</style>
<path class="st0" d="M436.8,154.7l-0.8-0.4l-39.7-20.1l1.7-7.8l-64.7-32.7L305.5,106l-5.6,25l-23.7-12l-27.9,12.4L237,181.9
	l-53.4,23.7l-5.9,26.4l35,17.7l-43.2,19.2l-5.9,26.4l43.2,21.9l-1.7,7.4l64.7,32.7l27.9-12.4l5.6-25l23.7,12l27.9-12.4l11.9-52.9
	l50-22.2l5.9-26.4l-35-17.7l43.2-19.2L436.8,154.7z"/>
<path class="st1" d="M365.2,147l-50,22.2l-9.4,42.1l50-22.2l-4.7,21.1l-50,22.2l-11.9,52.9l-23.5,10.4l11.9-52.9l-33.7,14.9
	l-11.9,52.9l-23.5,10.4l11.9-52.9l-53.4,23.7l4.7-21.1L225,247l9.4-42.1L181,228.6l4.7-21.1l53.4-23.7l11.3-50.5l23.5-10.4
	l-11.3,50.5l33.7-14.9l11.3-50.5l23.5-10.4L319.9,148l50-22.2L365.2,147z M282.2,221.7l9.4-42.1L258,194.5l-9.4,42.1L282.2,221.7z"
	/>
<path class="st1" d="M303.5,234.8l60.5,31.8l-11,49.7L292.3,286L303.5,234.8z"/>
<path class="st1" d="M414.9,241.8l-60.8-31.1l5.1-21.9l60.8,30.2L414.9,241.8z"/>
<path class="st1" d="M429.5,177.6l-61.2-29.7l4.7-21.8l61.3,29.8L429.5,177.6z"/>
<path class="st1" d="M310.9,206.1l7.3-31.3l27.6,14.7L310.9,206.1z"/>
<path class="st1" d="M267.4,271.3l-20.3-10.7l-11.5,50.7l58.6,29l5-21.8L261.7,299L267.4,271.3z"/>
<path class="st1" d="M253.6,231.3l7.5-33.6l20.5,10.6l-2.5,11.3L253.6,231.3z"/>
<path class="st1" d="M324.7,142.9l9.8-45.2l60.4,30.4l-1,4.5l-23.1-10.5L324.7,142.9z"/>
<path class="st0" d="M267.3,168.3l10.3-44.5l21.3,10.5l-4.8,21.8L267.3,168.3z"/>
</svg>
